<?xml version="1.0" encoding="UTF-8"?>
<svg width="620" height="240" viewBox="0 0 620 240" xmlns="http://www.w3.org/2000/svg">
            <defs>
                <marker id="arrB" markerWidth="8" markerHeight="8" refX="6" refY="3" orient="auto">
                    <path d="M0,0 L0,6 L8,3 z" fill="#ff4466" />
                </marker>
            </defs>
            <text x="310" y="22" fill="#ffffff" font-size="13" font-weight="bold" text-anchor="middle">Step 2 —
                Reference Edge vs. Incident Edge</text>

            <!-- Polygon A (blue, bottom) -->
            <polygon points="120,100 380,100 380,190 120,190" fill="rgba(55,148,255,0.2)" stroke="#3794ff"
                stroke-width="1.5" />
            <text x="155" y="165" fill="#3794ff" font-size="12">Polygon A</text>

            <!-- Polygon B (orange, top-right, overlapping) -->
            <polygon points="280,50 500,70 480,145 260,125" fill="rgba(255,148,55,0.2)" stroke="#ff9437"
                stroke-width="1.5" />
            <text x="430" y="100" fill="#ff9437" font-size="12">Polygon B</text>

            <!-- Reference edge (top of A) — highlighted green -->
            <line x1="120" y1="100" x2="380" y2="100" stroke="#00ff88" stroke-width="5" stroke-linecap="round" />
            <text x="250" y="88" fill="#00ff88" font-size="13" font-weight="bold" text-anchor="middle">Reference
                Edge</text>

            <!-- Reference normal arrow -->
            <line x1="250" y1="100" x2="250" y2="52" stroke="#ff4466" stroke-width="2" marker-end="url(#arrB)" />
            <text x="262" y="75" fill="#ff4466" font-size="11">refNormal</text>

            <!-- Incident edge (bottom of B) — highlighted yellow -->
            <line x1="480" y1="145" x2="260" y2="125" stroke="#ffaa00" stroke-width="5" stroke-linecap="round" />
            <text x="390" y="170" fill="#ffaa00" font-size="13" font-weight="bold" text-anchor="middle">Incident
                Edge</text>

            <!-- Labels for edge vertices -->
            <circle cx="120" cy="100" r="4" fill="#00ff88" />
            <text x="107" y="96" fill="#00ff88" font-size="10">refV1</text>
            <circle cx="380" cy="100" r="4" fill="#00ff88" />
            <text x="383" y="96" fill="#00ff88" font-size="10">refV2</text>

            <circle cx="480" cy="145" r="4" fill="#ffaa00" />
            <text x="484" y="143" fill="#ffaa00" font-size="10">v1</text>
            <circle cx="260" cy="125" r="4" fill="#ffaa00" />
            <text x="240" y="122" fill="#ffaa00" font-size="10">v2</text>

            <!-- Overlap zone shading -->
            <polygon points="280,100 380,100 380,125 280,125" fill="rgba(255,255,255,0.08)" stroke="none" />
            <text x="330" y="117" fill="#aaa" font-size="10" text-anchor="middle">overlap zone</text>
        </svg>