<?xml version="1.0" encoding="UTF-8"?>
<svg width="600" height="300" viewBox="0 0 600 300" xmlns="http://www.w3.org/2000/svg">
            <defs>
                <marker id="arrow" markerWidth="10" markerHeight="10" refX="8" refY="3" orient="auto">
                    <path d="M0,0 L0,6 L9,3 z" fill="#666" />
                </marker>
            </defs>

            <!-- A: Start -->
            <rect x="250" y="10" width="100" height="30" rx="4" fill="#333" stroke="#666" />
            <text x="300" y="30" fill="#fff" font-size="12" text-anchor="middle">Start Clipping</text>

            <line x1="300" y1="40" x2="300" y2="60" stroke="#666" stroke-width="1.5" marker-end="url(#arrow)" />

            <!-- B: Clip Success? -->
            <polygon points="300,60 360,90 300,120 240,90" fill="#222" stroke="#ffaa00" />
            <text x="300" y="94" fill="#ffaa00" font-size="11" text-anchor="middle">Clip success?</text>

            <!-- B -> C (Yes) -->
            <line x1="360" y1="90" x2="420" y2="90" stroke="#666" stroke-width="1.5" marker-end="url(#arrow)" />
            <text x="390" y="85" fill="#00ff88" font-size="10" text-anchor="middle">Yes</text>
            <rect x="420" y="75" width="100" height="30" rx="4" fill="#003300" stroke="#00ff88" />
            <text x="470" y="94" fill="#00ff88" font-size="11" text-anchor="middle">Return Contacts</text>

            <!-- B -> D (No) -->
            <line x1="300" y1="120" x2="300" y2="150" stroke="#666" stroke-width="1.5" marker-end="url(#arrow)" />
            <text x="315" y="140" fill="#ff4466" font-size="10">No (0 points)</text>

            <!-- D: Fallback Mode -->
            <rect x="230" y="150" width="140" height="30" rx="4" fill="#330000" stroke="#ff4466" />
            <text x="300" y="169" fill="#ff4466" font-size="11" text-anchor="middle">Enter Fallback Mode</text>

            <line x1="300" y1="180" x2="300" y2="210" stroke="#666" stroke-width="1.5" marker-end="url(#arrow)" />

            <!-- E: Iterate Vertices -->
            <rect x="200" y="210" width="200" height="30" rx="4" fill="#222" stroke="#666" />
            <text x="300" y="229" fill="#fff" font-size="11" text-anchor="middle">Find deepest incident vertex</text>

            <line x1="300" y1="240" x2="300" y2="260" stroke="#666" stroke-width="1.5" marker-end="url(#arrow)" />

            <!-- I: Return Result -->
            <rect x="230" y="260" width="140" height="30" rx="4" fill="#222" stroke="#888" />
            <text x="300" y="279" fill="#fff" font-size="11" text-anchor="middle">Return Deepest / Null</text>
        </svg>